
        <svg width="3124.6831403005904" height="1140.0719397519556" xmlns="http://www.w3.org/2000/svg" xmlns:xlink="http://www.w3.org/1999/xlink" version="1.1">
            <rect fill="#25a6a6" width="3124.6831403005904" height="1140.0719397519556"/>
            <g transform="scale(6.234157015029512) translate(10, 10)">
                <svg xmlns="http://www.w3.org/2000/svg" xmlns:xlink="http://www.w3.org/1999/xlink" version="1.1">
                <g id="SvgjsG1400" rel="mainfill" name="main_text" xmlns:name="mainText_mainfill" fill="#ffffff" transform="translate(167.17306995391834,-65.39234733581549)"><path d="M91.484 170.781 q7.03125 -11.71875 8.4375 -23.046875 q0 -81.328125 0 -81.171875 l-10.938 0 l0 47.813 q-6.953125 -8.515625 -15.546875 -12.6953125 t-18.828 -4.1797 q-18.125 0 -31.015625 13.203125 t-12.891 32.031 q0 18.515625 12.96875 31.640625 t31.25 13.125 q10.46875 0 19.6484375 -4.0234375 t16.914 -12.695 z M55.859 176.953 q-9.296875 0 -17.0703125 -4.5703125 t-12.383 -12.695 t-4.6094 -17.344 q0 -9.0625 4.6484375 -17.3828125 t12.5 -12.891 t16.758 -4.5703 q9.0625 0 17.1875 4.5703125 t12.5 12.422 t4.375 17.539 q0 14.921875 -9.84375 24.921875 t-24.063 10 z M105.906 99.687 l11.094 0 l0 40 q0 14.6875 1.5625 20.15625 q2.34375 7.890625 8.984375 12.4609375 t15.938 4.5703 q9.21875 0 15.625 -4.453125 t8.8281 -11.719 q1.71875 -4.921875 1.71875 -21.015625 l0 -40 l11.25 0 l0 42.109 q0 17.734375 -4.1796875 26.6796875 t-12.461 13.984 t-20.781 5.0391 q-12.578125 0 -20.9375 -5.0390625 t-12.5 -14.141 t-4.1406 -27.383 l0 -41.25 z M262.28125 156.953 l9.2188 4.9219 q-4.453125 8.984375 -10.46875 14.453125 t-13.516 8.3203 t-16.953 2.8516 q-20.9375 0 -32.734375 -13.7109375 t-11.797 -30.977 q0 -16.328125 10 -29.0625 q12.65625 -16.25 33.984375 -16.25 q21.796875 0 34.921875 16.640625 q9.296875 11.71875 9.375 29.21875 l-76.953 0 q0.3125 15 9.53125 24.5703125 t22.734 9.5703 q6.5625 0 12.734375 -2.3046875 t10.508 -6.0547 t9.4141 -12.188 z M262.28125 133.906 q-2.1875 -8.828125 -6.40625 -14.1015625 t-11.172 -8.5156 t-14.609 -3.2422 q-12.578125 0 -21.640625 8.125 q-6.5625 5.9375 -9.921875 17.734375 l63.75 0 z M310.609375 175.312 q-8.125 4.375 -15.9375 0.703125 q-9.53125 -7.265625 -9.0625 -20.703125 l0 -36.25 l20.313 0 l0 -9.4531 l-20.391 0 l0 -41.406 l-11.094 0 l0 88.984 q-0.15625 9.375 4.296875 17.1875 q7.34375 12.421875 20 13.125 q6.71875 0.234375 15.3125 -3.046875 q-1.328125 -3.28125 -3.4375 -9.140625 z"/></g><defs id="SvgjsDefs1399"/><g id="SvgjsG1401" rel="mainfill" name="slogan_text" xmlns:name="sloganText_mainfill" fill="#ffffff" transform="translate(176.25507736206043,119.0214176177978)"><path d="M3.42 29.07 q0 2.49 1.56 4.08 t3.93 1.59 q2.34 0 4.035 -1.605 t1.755 -4.065 q0 -2.34 -1.665 -3.99 t-4.155 -1.68 q-2.34 0 -3.885 1.59 t-1.575 4.08 z M14.52 13.32 l1.8 0 l0 22.68 l-1.8 0 l0 -2.43 l-0.06 0 q-0.75 1.32 -2.295 2.055 t-3.255 0.735 q-3.09 0 -5.16 -2.025 t-2.13 -5.265 q0 -3.09 2.025 -5.16 t5.265 -2.13 q1.77 0 3.27 0.735 t2.28 2.055 l0.06 0 l0 -11.25 z M40.11 21.78 q1.53 0 2.625 0.78 t1.545 2.22 q0.6 -1.44 1.89 -2.22 t2.85 -0.78 q5.25 0 5.25 5.88 l0 8.34 l-1.8 0 l0 -8.25 q0 -4.32 -3.48 -4.35 q-2.1 0 -3.15 1.38 t-1.05 3.57 l0 7.65 l-1.8 0 l0 -8.43 q0 -1.89 -0.72 -3.015 t-2.19 -1.155 q-2.16 0 -3.45 1.515 t-1.32 4.215 l0 6.87 l-1.8 0 l0 -10.11 q-0.03 -1.02 -0.15 -3.75 l1.8 0 q0.06 2.22 0.12 2.43 l0.09 0 q0.6 -1.29 1.92 -2.04 t2.82 -0.75 z M73.07999999999998 29.07 q0 2.37 1.68 3.99 t4.11 1.68 q2.43 0 3.945 -1.605 t1.545 -4.065 q0 -2.4 -1.5 -4.02 t-4.02 -1.65 q-2.43 0 -4.08 1.65 t-1.68 4.02 z M78.86999999999999 21.78 q3.18 0 5.22 2.055 t2.07 5.235 q0 3.18 -2.04 5.22 t-5.25 2.07 q-1.77 0 -3.285 -0.75 t-2.265 -2.04 l-0.06 0 l0 9.27 l-1.8 0 l0 -20.7 l1.8 0 l0 2.43 l0.06 0 q0.72 -1.26 2.25 -2.025 t3.3 -0.765 z M109.13999999999999 21.78 q0.51 0 1.05 0.15 l-0.21 1.77 q-0.33 -0.12 -0.72 -0.12 q-2.19 0 -3.345 1.35 t-1.155 3.51 l0 7.56 l-1.8 0 l0 -10.11 q0 -0.3 -0.15 -3.75 l1.8 0 q0.06 2.07 0.12 2.43 q1.56 -2.79 4.41 -2.79 z M126.74999999999999 29.07 q0 2.49 1.56 4.08 t3.93 1.59 q2.46 0 3.975 -1.62 t1.515 -4.05 q0 -2.4 -1.5 -4.02 t-4.02 -1.65 q-2.43 0 -3.93 1.62 t-1.53 4.05 z M132.23999999999998 21.78 q3.18 0 5.22 2.07 t2.07 5.22 q0 3.21 -2.085 5.235 t-5.205 2.055 q-3.27 -0.03 -5.265 -2.1 t-2.025 -5.19 q0 -3.21 2.055 -5.235 t5.235 -2.055 z  M183.42 21.78 q3 0 5.16 2.4 l-1.44 1.08 q-1.74 -1.86 -3.75 -1.86 q-2.34 0 -3.885 1.59 t-1.575 4.08 q0 2.49 1.56 4.065 t3.9 1.605 q2.22 0 3.75 -1.92 l1.38 1.14 q-2.01 2.37 -5.1 2.4 q-3.15 0 -5.19 -2.04 t-2.1 -5.25 q0 -3.09 2.025 -5.16 t5.265 -2.13 z M204.42 13.32 l1.8 0 l0 22.68 l-1.8 0 l0 -22.68 z M225.11999999999998 29.07 q0 2.49 1.56 4.08 t3.93 1.59 q2.46 0 3.975 -1.62 t1.515 -4.05 q0 -2.4 -1.5 -4.02 t-4.02 -1.65 q-2.43 0 -3.93 1.62 t-1.53 4.05 z M230.60999999999999 21.78 q3.18 0 5.22 2.07 t2.07 5.22 q0 3.21 -2.085 5.235 t-5.205 2.055 q-3.27 -0.03 -5.265 -2.1 t-2.025 -5.19 q0 -3.21 2.055 -5.235 t5.235 -2.055 z M259.83 36.36 q-2.64 0 -3.96 -1.485 t-1.32 -4.545 l0 -8.19 l1.8 0 l0 8.1 q0 2.25 0.855 3.375 t2.625 1.125 q2.19 0 3.48 -1.5 t1.32 -4.23 l0 -6.87 l1.8 0 l0 10.11 q0.06 1.53 0.15 3.75 l-1.8 0 q-0.03 -1.71 -0.12 -2.43 l-0.09 0 q-0.6 1.29 -1.905 2.04 t-2.835 0.75 z M285.18 29.07 q0 2.49 1.56 4.08 t3.93 1.59 q2.34 0 4.035 -1.605 t1.755 -4.065 q0 -2.34 -1.665 -3.99 t-4.155 -1.68 q-2.34 0 -3.885 1.59 t-1.575 4.08 z M296.28 13.32 l1.8 0 l0 22.68 l-1.8 0 l0 -2.43 l-0.06 0 q-0.75 1.32 -2.295 2.055 t-3.255 0.735 q-3.09 0 -5.16 -2.025 t-2.13 -5.265 q0 -3.09 2.025 -5.16 t5.265 -2.13 q1.77 0 3.27 0.735 t2.28 2.055 l0.06 0 l0 -11.25 z"/></g><g id="SvgjsG1402" transform="translate(0,0) scale(3.257501525878904)" rel="inversefill" name="monogram_container" xmlns:name="monogram_container_inversefill" fill="#ffffff">   <title>assets</title>   <circle cx="25" cy="25" r="25"/> </g><g id="SvgjsG1403" rel="mainfill" name="monogram" xmlns:name="symbol_mainfill" fill="#25a6a6" transform="translate(50.55678749084467,-42.72010803222662)"><path d="M0.31836 195.47265625 l0 -142.63 q8.27734375 0 14.32617188 6.048828125 t6.0488 14.326 l0 101.88 q0 4.297851563 -1.432617188 7.958984375 t-4.6162 6.6855 q-5.889648438 5.73046875 -14.32617188 5.73046875 z M20.693 195.47265625 q8.436523438 0 14.32617188 -5.73046875 q3.18359375 -3.024414063 4.616210938 -6.685546875 t1.4326 -7.959 l0 -101.88 q0 -8.27734375 -6.048828125 -14.32617188 t-14.326 -6.0488 l20.375 0 q8.27734375 0 14.32617188 6.048828125 t6.0488 14.326 l0 101.88 q0 4.297851563 -1.432617188 7.958984375 t-4.6162 6.6855 q-5.889648438 5.73046875 -14.32617188 5.73046875 l-20.375 0 z"/></g>
            </svg>
            </g>
        </svg>
    